<svg viewBox="75.4962962962963 60.258 241.0074074074074 243.21" xmlns:xlink="http://www.w3.org/1999/xlink" xmlns="http://www.w3.org/2000/svg" data-name="Camada 1" id="Camada_1" style="max-height: 500px" width="241.0074074074074" height="243.21"><defs><style>.cls-1{fill:url(#Gradiente_sem_nome_28);}.cls-2{fill:url(#Gradiente_sem_nome_28-2);}.cls-3{fill:url(#Gradiente_sem_nome_28-3);}.cls-4{fill:url(#Gradiente_sem_nome_38);}</style><linearGradient gradientUnits="userSpaceOnUse" gradientTransform="translate(0 0)" y2="85.83" x2="227.1" y1="220.32" x1="284.05" id="Gradiente_sem_nome_28"><stop stop-color="#939395" offset="0"/><stop stop-color="#8f8f91" offset="0.21"/><stop stop-color="#848486" offset="0.4"/><stop stop-color="#717173" offset="0.58"/><stop stop-color="#575759" offset="0.76"/><stop stop-color="#363638" offset="0.94"/><stop stop-color="#29292b" offset="0.99"/></linearGradient><linearGradient xlink:href="#Gradiente_sem_nome_28" y2="160.9" x2="93.32" y1="101.08" x1="202.34" id="Gradiente_sem_nome_28-2"/><linearGradient xlink:href="#Gradiente_sem_nome_28" y2="273.21" x2="169.57" y1="202.07" x1="132.38" id="Gradiente_sem_nome_28-3"/><linearGradient gradientUnits="userSpaceOnUse" gradientTransform="translate(0 0)" y2="230.78" x2="325.68" y1="246.22" x1="196.8" id="Gradiente_sem_nome_38"><stop stop-color="#939395" offset="0"/><stop stop-color="#8f8f91" offset="0.15"/><stop stop-color="#848486" offset="0.29"/><stop stop-color="#717173" offset="0.42"/><stop stop-color="#575759" offset="0.55"/><stop stop-color="#363638" offset="0.68"/><stop stop-color="#29292b" offset="0.72"/></linearGradient></defs><path d="M191,108.5s0,0,0,0c1.64-2,4.92-1.37,6.74.44l70.9,70.31.78.78a3.73,3.73,0,0,1,0,5.29h0c.42,0,1.49.92,1.49.92s.83.86.89,1c5.83,9.74,10.63,17,13.72,28.21a.79.79,0,0,0,1.32.38l19.86-19.87a18.73,18.73,0,0,0,0-26.5l-85-85A14.19,14.19,0,0,0,197.93,91Z" class="cls-1"/><path d="M95.68,183.37l27.05,5.3-1.23-2.41a4,4,0,0,1,.75-4.72l70.35-74.48s1.09-1,2.43-2.14c9-7.9,21.39-11.1,33.23-14.32L206.58,68.91a17.12,17.12,0,0,0-24.2,0L91,160.25A14.16,14.16,0,0,0,95.68,183.37Z" class="cls-2"/><path d="M198.16,256.58a5.29,5.29,0,0,1-7.49,0l-68.26-68.91c-2.9-2.92-12.3-15.82-14.33-19.41-4.1-7.29-5.77-15.33-6.48-18.8L87.82,163.24a27.42,27.42,0,0,0,0,38.78l73.25,73.25a26.74,26.74,0,0,0,42.65-6.6l2.47-4.74a9.63,9.63,0,0,0,.66-7.18h0a4.26,4.26,0,0,0-7.09-1.77Z" class="cls-3"/><path d="M200.6,254.1c-7.95,8.08-30.65,20.84-39.65,21l17.36,17.37a22.49,22.49,0,0,0,31.79,0l75.81-75.81c-3.1-11.67-12.75-29.4-15.9-32C270,184.73,218.72,235.71,200.6,254.1Z" class="cls-4"/></svg>